<svg width="1271" height="1034" viewBox="0 0 1271 1034" fill="none" xmlns="http://www.w3.org/2000/svg">
<g clip-path="url(#clip0_16_9)">
<g filter="url(#filter0_d_16_9)">
<path d="M84.445 572.84L218.73 707.112C237.484 725.864 262.918 736.398 289.438 736.398H360.131C386.651 736.398 412.086 746.933 430.839 765.685L591.879 926.712C610.632 945.464 636.065 955.999 662.584 956H1051.44C1096.4 956 1132.85 919.55 1132.85 874.586C1132.85 863.894 1130.75 853.307 1126.65 843.429C1122.56 833.551 1116.56 824.576 1109 817.016L1022.61 730.63C1010.58 718.598 1010.58 699.09 1022.61 687.056C1025.47 684.195 1028.87 681.925 1032.61 680.376C1036.34 678.828 1040.35 678.031 1044.4 678.031C1061.42 678.031 1075.21 664.236 1075.21 647.219C1075.21 639.047 1071.96 631.209 1066.19 625.431L870.85 430.11C852.097 411.358 826.662 400.823 800.142 400.823H565.7C539.18 400.823 513.745 390.288 494.992 371.536L459.739 336.286C440.986 317.534 415.552 307 389.032 307H153.88C122.111 307 96.357 332.754 96.357 364.523C96.3571 372.077 97.8452 379.558 100.736 386.537C103.628 393.516 107.865 399.858 113.207 405.199L141.968 433.959C157.854 449.843 157.855 475.599 141.971 491.484C138.194 495.262 133.709 498.258 128.774 500.302C123.839 502.347 118.549 503.399 113.207 503.399C90.742 503.399 72.53 521.61 72.53 544.075C72.53 549.417 73.5822 554.707 75.6266 559.642C77.671 564.577 80.6675 569.062 84.445 572.839V572.84Z" fill="black"/>
</g>
<path d="M84.445 572.84L218.73 707.112C237.484 725.864 262.918 736.398 289.438 736.398H360.131C386.651 736.398 412.086 746.933 430.839 765.685L591.879 926.712C610.632 945.464 636.065 955.999 662.584 956H1051.44C1096.4 956 1132.85 919.55 1132.85 874.586C1132.85 863.894 1130.75 853.307 1126.65 843.429C1122.56 833.551 1116.56 824.576 1109 817.016L1022.61 730.63C1010.58 718.598 1010.58 699.09 1022.61 687.056C1025.47 684.195 1028.87 681.925 1032.61 680.376C1036.34 678.828 1040.35 678.031 1044.4 678.031C1061.42 678.031 1075.21 664.236 1075.21 647.219C1075.21 639.047 1071.96 631.209 1066.19 625.431L870.85 430.11C852.097 411.358 826.662 400.823 800.142 400.823H565.7C539.18 400.823 513.745 390.288 494.992 371.536L459.739 336.286C440.986 317.534 415.552 307 389.032 307H153.88C122.111 307 96.357 332.754 96.357 364.523C96.3571 372.077 97.8452 379.558 100.736 386.537C103.628 393.516 107.865 399.858 113.207 405.199L141.968 433.959C157.854 449.843 157.855 475.599 141.971 491.484C138.194 495.262 133.709 498.258 128.774 500.302C123.839 502.347 118.549 503.399 113.207 503.399C90.742 503.399 72.53 521.61 72.53 544.075C72.53 549.417 73.5822 554.707 75.6266 559.642C77.671 564.577 80.6675 569.062 84.445 572.839V572.84Z" fill="#3B138F" fill-opacity="0.74"/>
<path fill-rule="evenodd" clip-rule="evenodd" d="M222.445 265.84L356.73 400.112C375.484 418.864 400.918 429.398 427.438 429.398H498.131C524.651 429.398 550.086 439.933 568.839 458.685L729.879 619.712C748.632 638.464 774.065 648.999 800.584 649H1189.44C1234.4 649 1270.85 612.55 1270.85 567.586C1270.85 556.894 1268.75 546.307 1264.65 536.429C1260.56 526.551 1254.56 517.576 1247 510.016L1160.61 423.63C1148.58 411.598 1148.58 392.09 1160.61 380.056C1163.47 377.195 1166.87 374.925 1170.61 373.376C1174.34 371.828 1178.35 371.031 1182.4 371.031C1199.42 371.031 1213.21 357.236 1213.21 340.219C1213.21 332.047 1209.96 324.209 1204.19 318.431L1008.85 123.11C990.097 104.358 964.662 93.8231 938.142 93.823H703.7C677.18 93.8229 651.745 83.2881 632.992 64.536L597.739 29.286C578.986 10.5345 553.552 9.44326e-05 527.032 0H291.88C260.111 0 234.357 25.754 234.357 57.523C234.357 65.0773 235.845 72.5577 238.736 79.5369C241.628 86.5161 245.865 92.8575 251.207 98.199L279.968 126.959C295.854 142.843 295.855 168.599 279.971 184.484C276.194 188.262 271.709 191.258 266.774 193.302C261.839 195.347 256.549 196.399 251.207 196.399C228.742 196.399 210.53 214.61 210.53 237.075C210.53 242.417 211.582 247.707 213.627 252.642C215.671 257.577 218.667 262.062 222.445 265.839V265.84Z" fill="url(#paint0_linear_16_9)"/>
</g>
<defs>
<filter id="filter0_d_16_9" x="-4.46997" y="232" width="1214.32" height="803" filterUnits="userSpaceOnUse" color-interpolation-filters="sRGB">
<feFlood flood-opacity="0" result="BackgroundImageFix"/>
<feColorMatrix in="SourceAlpha" type="matrix" values="0 0 0 0 0 0 0 0 0 0 0 0 0 0 0 0 0 0 127 0" result="hardAlpha"/>
<feOffset dy="2"/>
<feGaussianBlur stdDeviation="38.5"/>
<feColorMatrix type="matrix" values="0 0 0 0 0 0 0 0 0 0 0 0 0 0 0 0 0 0 0.0240111 0"/>
<feBlend mode="normal" in2="BackgroundImageFix" result="effect1_dropShadow_16_9"/>
<feBlend mode="normal" in="SourceGraphic" in2="effect1_dropShadow_16_9" result="shape"/>
</filter>
<linearGradient id="paint0_linear_16_9" x1="210.53" y1="234.594" x2="1154.12" y2="661.703" gradientUnits="userSpaceOnUse">
<stop offset="0.205717" stop-color="#EA24CA"/>
<stop offset="1" stop-color="#4915B9"/>
</linearGradient>
<clipPath id="clip0_16_9">
<rect width="1271" height="1034" fill="white"/>
</clipPath>
</defs>
</svg>
