<svg width="797" height="900" viewBox="0 0 797 900" fill="none" xmlns="http://www.w3.org/2000/svg">
<g filter="url(#filter0_d_16_15)">
<path d="M-111.11 235.083L23.9966 385.472C41.7311 405.213 62.7865 420.872 85.9601 431.556C109.134 442.241 133.971 447.74 159.055 447.74H180.12C205.204 447.74 230.041 453.239 253.215 463.923C276.389 474.607 297.444 490.267 315.178 510.008L459.784 670.972C477.519 690.713 498.574 706.373 521.747 717.057C544.921 727.741 569.759 733.24 594.842 733.24H1018.19C1070.72 733.24 1113.3 685.847 1113.3 627.388C1113.3 599.319 1103.29 572.399 1085.45 552.548L984.55 440.229C970.496 424.586 970.5 399.223 984.556 383.582C991.306 376.073 1000.46 371.854 1010 371.855C1029.88 371.855 1046 353.921 1046 331.801C1046 321.18 1042.21 310.994 1035.46 303.481L829.055 73.7299C811.32 53.9887 790.265 38.3289 767.091 27.6448C743.917 16.9607 719.079 11.4617 693.995 11.4619H480.072C455.503 11.4618 431.175 6.0757 408.478 -4.38882C385.78 -14.8533 365.157 -30.1913 347.786 -49.5266C330.415 -68.8629 309.792 -84.2015 287.093 -94.6664C264.395 -105.131 240.066 -110.518 215.497 -110.517L-29.9818 -110.517C-67.0985 -110.517 -97.1873 -77.0327 -97.1873 -35.7269C-97.1872 -15.8944 -90.1088 3.1261 -77.5088 17.1514L-43.9041 54.5552C-25.3505 75.207 -25.3543 108.687 -43.9118 129.335C-52.822 139.248 -64.9055 144.818 -77.505 144.818C-103.749 144.818 -125.021 168.494 -125.021 197.696C-125.021 211.718 -120.017 225.165 -111.11 235.081V235.083Z" fill="black"/>
</g>
<path d="M-111.11 235.083L23.9966 385.472C41.7311 405.213 62.7865 420.872 85.9601 431.556C109.134 442.241 133.971 447.74 159.055 447.74H180.12C205.204 447.74 230.041 453.239 253.215 463.923C276.389 474.607 297.444 490.267 315.178 510.008L459.784 670.972C477.519 690.713 498.574 706.373 521.747 717.057C544.921 727.741 569.759 733.24 594.842 733.24H1018.19C1070.72 733.24 1113.3 685.847 1113.3 627.388C1113.3 599.319 1103.29 572.399 1085.45 552.548L984.55 440.229C970.496 424.586 970.5 399.223 984.556 383.582C991.306 376.073 1000.46 371.854 1010 371.855C1029.88 371.855 1046 353.921 1046 331.801C1046 321.18 1042.21 310.994 1035.46 303.481L829.055 73.7299C811.32 53.9887 790.265 38.3289 767.091 27.6448C743.917 16.9607 719.079 11.4617 693.995 11.4619H480.072C455.503 11.4618 431.175 6.0757 408.478 -4.38882C385.78 -14.8533 365.157 -30.1913 347.786 -49.5266C330.415 -68.8629 309.792 -84.2015 287.093 -94.6664C264.395 -105.131 240.066 -110.518 215.497 -110.517L-29.9818 -110.517C-67.0985 -110.517 -97.1873 -77.0327 -97.1873 -35.7269C-97.1872 -15.8944 -90.1088 3.1261 -77.5088 17.1514L-43.9041 54.5552C-25.3505 75.207 -25.3543 108.687 -43.9118 129.335C-52.822 139.248 -64.9055 144.818 -77.505 144.818C-103.749 144.818 -125.021 168.494 -125.021 197.696C-125.021 211.718 -120.017 225.165 -111.11 235.081V235.083Z" fill="#3B138F" fill-opacity="0.74"/>
<path fill-rule="evenodd" clip-rule="evenodd" d="M297.586 237.208L432.692 387.597C450.426 407.338 471.482 422.998 494.655 433.682C517.829 444.366 542.667 449.865 567.75 449.865H588.815C613.899 449.865 638.737 455.364 661.91 466.048C685.084 476.732 706.139 492.392 723.874 512.133L868.479 673.097C886.214 692.838 907.269 708.498 930.443 719.182C953.616 729.866 978.454 735.365 1003.54 735.365H1426.88C1479.42 735.365 1522 687.972 1522 629.513C1522 601.444 1511.98 574.524 1494.15 554.674L1393.25 442.354C1379.19 426.712 1379.2 401.348 1393.25 385.708C1400 378.198 1409.15 373.98 1418.7 373.98C1438.58 373.98 1454.69 356.046 1454.69 333.926C1454.69 323.306 1450.9 313.119 1444.15 305.606L1237.75 75.8552C1220.02 56.114 1198.96 40.4541 1175.79 29.77C1152.61 19.086 1127.77 13.587 1102.69 13.5872H888.767C864.198 13.5871 839.871 8.20094 817.173 -2.26358C794.475 -12.7281 773.852 -28.066 756.481 -47.4014C739.111 -66.7377 718.487 -82.0763 695.788 -92.5412C673.09 -103.006 648.761 -108.392 624.192 -108.392H378.713C341.597 -108.392 311.508 -74.9075 311.508 -33.6016C311.508 -13.7691 318.586 5.25134 331.186 19.2767L364.789 56.6804C383.343 77.3323 383.339 110.813 364.782 131.46C355.871 141.374 343.788 146.943 331.188 146.943C304.944 146.943 283.673 170.62 283.673 199.822C283.673 213.843 288.676 227.29 297.584 237.206L297.586 237.208Z" fill="url(#paint0_linear_16_15)"/>
<defs>
<filter id="filter0_d_16_15" x="-288.671" y="-269.917" width="1565.63" height="1171.06" filterUnits="userSpaceOnUse" color-interpolation-filters="sRGB">
<feFlood flood-opacity="0" result="BackgroundImageFix"/>
<feColorMatrix in="SourceAlpha" type="matrix" values="0 0 0 0 0 0 0 0 0 0 0 0 0 0 0 0 0 0 127 0" result="hardAlpha"/>
<feOffset dy="4.25067"/>
<feGaussianBlur stdDeviation="81.8253"/>
<feColorMatrix type="matrix" values="0 0 0 0 0 0 0 0 0 0 0 0 0 0 0 0 0 0 0.0240111 0"/>
<feBlend mode="normal" in2="BackgroundImageFix" result="effect1_dropShadow_16_15"/>
<feBlend mode="normal" in="SourceGraphic" in2="effect1_dropShadow_16_15" result="shape"/>
</filter>
<linearGradient id="paint0_linear_16_15" x1="283.673" y1="196.533" x2="1422.97" y2="660.073" gradientUnits="userSpaceOnUse">
<stop stop-color="#EA24CA"/>
<stop offset="1" stop-color="#4915B9"/>
</linearGradient>
</defs>
</svg>
