<svg width="72" height="72" viewBox="0 0 72 72" fill="none" xmlns="http://www.w3.org/2000/svg">
<path d="M36 72C55.8823 72 72 55.8823 72 36C72 16.1177 55.8823 0 36 0C16.1177 0 0 16.1177 0 36C0 55.8823 16.1177 72 36 72Z" fill="url(#paint0_linear_18_83)"/>
<path d="M44.633 16C45.4527 16.0011 46.2386 16.3272 46.8182 16.9068C47.3978 17.4864 47.7239 18.2723 47.725 19.092V26.662C52.955 26.948 57.118 31.027 57.118 36C57.118 40.973 52.956 45.052 47.725 45.338V52.908C47.7242 53.7278 47.3982 54.5138 46.8185 55.0935C46.2388 55.6732 45.4528 55.9992 44.633 56H27.099C26.2792 55.9992 25.4932 55.6732 24.9135 55.0935C24.3338 54.5138 24.0078 53.7278 24.007 52.908V45.668C24.007 45.5123 24.0688 45.363 24.1789 45.2529C24.289 45.1428 24.4383 45.081 24.594 45.081C24.7497 45.081 24.899 45.1428 25.0091 45.2529C25.1192 45.363 25.181 45.5123 25.181 45.668V49.19H46.551V45.338C45.5657 45.2857 44.5928 45.0944 43.661 44.77L39.278 47.161C38.812 47.415 38.265 46.941 38.445 46.445L39.753 42.849H33.048C32.8924 42.8484 32.7434 42.7866 32.633 42.677L27.936 37.981C27.8265 37.8706 27.7647 37.7215 27.764 37.566V24.728C27.764 24.404 28.027 24.141 28.351 24.141H43.381C43.705 24.141 43.968 24.404 43.968 24.728V27.13C44.787 26.872 45.653 26.711 46.551 26.662V22.184H25.18V42.888C25.18 42.9651 25.1648 43.0414 25.1353 43.1126C25.1058 43.1839 25.0626 43.2486 25.0081 43.3031C24.9536 43.3576 24.8889 43.4008 24.8176 43.4303C24.7464 43.4598 24.6701 43.475 24.593 43.475C24.5159 43.475 24.4396 43.4598 24.3684 43.4303C24.2971 43.4008 24.2324 43.3576 24.1779 43.3031C24.1234 43.2486 24.0802 43.1839 24.0507 43.1126C24.0212 43.0414 24.006 42.9651 24.006 42.888V19.092C24.0071 18.2721 24.3333 17.4861 24.9131 16.9064C25.493 16.3268 26.2791 16.0008 27.099 16H44.633ZM46.551 50.364H25.18V52.908C25.1805 53.4165 25.3828 53.9041 25.7424 54.2636C26.1019 54.6232 26.5895 54.8255 27.098 54.826H44.632C45.1405 54.8255 45.6281 54.6232 45.9876 54.2636C46.3472 53.9041 46.5495 53.4165 46.55 52.908V50.364H46.551ZM37.118 51.069C37.443 51.069 37.705 51.331 37.705 51.656V53.534C37.705 53.6111 37.6898 53.6874 37.6603 53.7586C37.6308 53.8299 37.5876 53.8946 37.5331 53.9491C37.4786 54.0036 37.4139 54.0468 37.3426 54.0763C37.2714 54.1058 37.1951 54.121 37.118 54.121H34.613C34.5359 54.121 34.4596 54.1058 34.3884 54.0763C34.3171 54.0468 34.2524 54.0036 34.1979 53.9491C34.1434 53.8946 34.1002 53.8299 34.0707 53.7586C34.0412 53.6874 34.026 53.6111 34.026 53.534V51.656C34.026 51.331 34.289 51.069 34.613 51.069H37.118ZM36.531 52.243H35.201V52.947H36.531V52.243ZM47.138 27.82C42.282 27.82 38.332 31.49 38.332 36C38.332 38.217 39.272 40.293 40.979 41.846C41.156 42.006 41.218 42.256 41.136 42.481L40.08 45.386L43.331 43.613C43.4054 43.5723 43.4877 43.5482 43.5723 43.5423C43.6569 43.5364 43.7417 43.5489 43.821 43.579C44.8811 43.9788 46.005 44.1824 47.138 44.18C51.994 44.18 55.944 40.51 55.944 36C55.944 31.49 51.994 27.82 47.138 27.82ZM47.138 29.15C47.462 29.15 47.725 29.414 47.725 29.738V31.029H47.765C48.4186 31.0301 49.0451 31.2902 49.5072 31.7525C49.9693 32.2148 50.2292 32.8414 50.23 33.495V34.121C50.23 34.2767 50.1682 34.426 50.0581 34.5361C49.948 34.6462 49.7987 34.708 49.643 34.708C49.4873 34.708 49.338 34.6462 49.2279 34.5361C49.1178 34.426 49.056 34.2767 49.056 34.121V33.495C49.056 32.783 48.476 32.204 47.764 32.204H46.824C45.94 32.204 45.22 32.924 45.22 33.808C45.22 34.693 45.94 35.413 46.825 35.413H47.451C48.1878 35.4138 48.8942 35.7068 49.4152 36.2278C49.9362 36.7488 50.2292 37.4552 50.23 38.192C50.23 39.632 49.13 40.819 47.725 40.957V42.262C47.725 42.4177 47.6632 42.567 47.5531 42.6771C47.443 42.7872 47.2937 42.849 47.138 42.849C46.9823 42.849 46.833 42.7872 46.7229 42.6771C46.6128 42.567 46.551 42.4177 46.551 42.262V40.971H46.511C45.8574 40.9699 45.2309 40.7098 44.7688 40.2475C44.3067 39.7852 44.0468 39.1586 44.046 38.505C44.046 38.3493 44.1078 38.2 44.2179 38.0899C44.328 37.9798 44.4773 37.918 44.633 37.918C44.7887 37.918 44.938 37.9798 45.0481 38.0899C45.1582 38.2 45.22 38.3493 45.22 38.505C45.22 39.217 45.8 39.796 46.512 39.796H47.451C48.336 39.796 49.056 39.076 49.056 38.192C49.056 37.307 48.336 36.587 47.451 36.587H46.825C46.088 36.5865 45.3814 36.2935 44.8602 35.7725C44.339 35.2515 44.0458 34.545 44.045 33.808C44.045 32.368 45.147 31.181 46.551 31.043V29.738C46.551 29.414 46.814 29.151 47.138 29.151V29.15ZM42.793 25.315H28.938V36.978H33.048C33.372 36.978 33.635 37.241 33.635 37.566V41.676H39.202C37.875 40.054 37.158 38.083 37.158 36C37.158 34.888 37.366 33.82 37.748 32.83H31.482C31.3263 32.83 31.177 32.7682 31.0669 32.6581C30.9568 32.548 30.895 32.3987 30.895 32.243C30.895 32.0873 30.9568 31.938 31.0669 31.8279C31.177 31.7178 31.3263 31.656 31.482 31.656H38.302C38.701 30.945 39.195 30.287 39.768 29.699H37.745C37.5893 29.699 37.44 29.6372 37.3299 29.5271C37.2198 29.417 37.158 29.2677 37.158 29.112C37.158 28.9563 37.2198 28.807 37.3299 28.6969C37.44 28.5868 37.5893 28.525 37.745 28.525H40.875C40.951 28.525 41.023 28.539 41.089 28.565C41.619 28.185 42.189 27.855 42.793 27.58V25.315V25.315ZM32.461 38.153H29.769L32.461 40.845V38.153ZM35.866 34.787C36.0217 34.787 36.171 34.8488 36.2811 34.9589C36.3912 35.069 36.453 35.2183 36.453 35.374C36.453 35.5297 36.3912 35.679 36.2811 35.7891C36.171 35.8992 36.0217 35.961 35.866 35.961H31.482C31.3263 35.961 31.177 35.8992 31.0669 35.7891C30.9568 35.679 30.895 35.5297 30.895 35.374C30.895 35.2183 30.9568 35.069 31.0669 34.9589C31.177 34.8488 31.3263 34.787 31.482 34.787H35.866ZM35.24 28.524C35.3958 28.524 35.5452 28.5859 35.6554 28.6961C35.7656 28.8063 35.8275 28.9557 35.8275 29.1115C35.8275 29.2673 35.7656 29.4167 35.6554 29.5269C35.5452 29.6371 35.3958 29.699 35.24 29.699H31.482C31.3262 29.699 31.1768 29.6371 31.0666 29.5269C30.9564 29.4167 30.8945 29.2673 30.8945 29.1115C30.8945 28.9557 30.9564 28.8063 31.0666 28.6961C31.1768 28.5859 31.3262 28.524 31.482 28.524H35.24ZM44.633 17.174H27.099C26.5905 17.1745 26.1029 17.3768 25.7434 17.7364C25.3838 18.0959 25.1815 18.5835 25.181 19.092V21.01H46.551V19.092C46.5505 18.5835 46.3482 18.0959 45.9886 17.7364C45.6291 17.3768 45.1415 17.1745 44.633 17.174ZM37.118 18.504C37.2738 18.504 37.4232 18.5659 37.5334 18.6761C37.6436 18.7863 37.7055 18.9357 37.7055 19.0915C37.7055 19.2473 37.6436 19.3967 37.5334 19.5069C37.4232 19.6171 37.2738 19.679 37.118 19.679H34.613C34.4573 19.679 34.308 19.6172 34.1979 19.5071C34.0878 19.397 34.026 19.2477 34.026 19.092C34.026 18.9363 34.0878 18.787 34.1979 18.6769C34.308 18.5668 34.4573 18.505 34.613 18.505L37.118 18.504Z" fill="white"/>
<defs>
<linearGradient id="paint0_linear_18_83" x1="0" y1="0" x2="71.6976" y2="71.6976" gradientUnits="userSpaceOnUse">
<stop stop-color="#EA24CA"/>
<stop offset="1" stop-color="#4915B9"/>
</linearGradient>
</defs>
</svg>
