<svg width="438" height="82" viewBox="0 0 438 82" fill="none" xmlns="http://www.w3.org/2000/svg">
<path d="M0 16.7429L6.82174 0.172543L134 64.6851L127.178 81.2555L0 16.7429Z" fill="#D9D9D9"/>
<path d="M0 16.7429L6.82174 0.172543L134 64.6851L127.178 81.2555L0 16.7429Z" fill="url(#paint0_linear_16_71)"/>
<path d="M43.3799 68.2393L31.1619 62.7585L54.519 6.85164e-05L66.737 5.48079L43.3799 68.2393Z" fill="#D9D9D9"/>
<path d="M43.3799 68.2393L31.1619 62.7585L54.519 6.85164e-05L66.737 5.48079L43.3799 68.2393Z" fill="url(#paint1_linear_16_71)"/>
<path d="M66.14 74.5829L53.9219 69.1022L77.2791 6.34376L89.4971 11.8245L66.14 74.5829Z" fill="#D9D9D9"/>
<path d="M66.14 74.5829L53.9219 69.1022L77.2791 6.34376L89.4971 11.8245L66.14 74.5829Z" fill="url(#paint2_linear_16_71)"/>
<g opacity="0.2">
<path d="M7.99057 20.7962C3.5775 18.5576 1.5271 13.0335 3.41087 8.45773V8.45773C5.29465 3.88195 10.3992 1.98727 14.8123 4.22585L126.009 60.6318C130.422 62.8704 132.473 68.3945 130.589 72.9703V72.9703C128.705 77.5461 123.601 79.4408 119.188 77.2022L7.99057 20.7962Z" fill="#D9D9D9"/>
<path d="M7.99057 20.7962C3.5775 18.5576 1.5271 13.0335 3.41087 8.45773V8.45773C5.29465 3.88195 10.3992 1.98727 14.8123 4.22585L126.009 60.6318C130.422 62.8704 132.473 68.3945 130.589 72.9703V72.9703C128.705 77.5461 123.601 79.4408 119.188 77.2022L7.99057 20.7962Z" fill="url(#paint3_linear_16_71)"/>
</g>
<path d="M43.3799 68.2393L31.1619 62.7585L54.519 6.85164e-05L66.737 5.48079L43.3799 68.2393Z" fill="#D9D9D9"/>
<path d="M43.3799 68.2393L31.1619 62.7585L54.519 6.85164e-05L66.737 5.48079L43.3799 68.2393Z" fill="url(#paint4_linear_16_71)"/>
<path d="M119.92 28.44L128 42H120.24L118.96 39.2L115.52 33.52L111.56 39.52L110.36 42H103.72L111.72 29.4L103.64 16.2H111.44L112.72 19.04L116.04 24.44L119.56 18.76L120.72 16.2H127.52L119.92 28.44ZM140.748 21.64C143.094 21.64 144.908 22.2 146.188 23.32C147.468 24.44 148.108 26.0267 148.108 28.08C148.108 29.68 147.708 31.0933 146.908 32.32C146.134 33.52 145.041 34.4533 143.628 35.12C142.214 35.7867 140.574 36.12 138.708 36.12H136.908L137.108 42H131.108L131.388 36.04L131.108 21.68L140.748 21.64ZM139.628 31.88C140.374 31.5867 140.921 31.1867 141.268 30.68C141.614 30.1733 141.788 29.5067 141.788 28.68C141.788 27.7467 141.534 27.0667 141.028 26.64C140.548 26.1867 139.761 25.9333 138.668 25.88L137.108 26L136.948 31.76L139.628 31.88ZM164.781 34.04C166.035 35.9333 167.648 38.12 169.621 40.6L169.541 41.28C167.488 41.8933 165.541 42.2533 163.701 42.36L162.861 41.76C161.741 39.7067 160.715 37.72 159.781 35.8H157.141L157.381 42H151.381L151.661 36.04L151.381 21.68L161.021 21.64C163.395 21.64 165.221 22.1867 166.501 23.28C167.781 24.3467 168.421 25.88 168.421 27.88C168.421 29.1067 168.101 30.2533 167.461 31.32C166.821 32.3867 165.928 33.2933 164.781 34.04ZM162.061 28.48C162.061 27.6 161.808 26.96 161.301 26.56C160.821 26.16 160.035 25.9333 158.941 25.88L157.381 26L157.261 31.36L159.941 31.52C160.688 31.2533 161.221 30.88 161.541 30.4C161.888 29.8933 162.061 29.2533 162.061 28.48ZM187.625 37.16L187.985 37.56L187.585 42H172.905L173.185 36.04L172.905 21.68H187.785L188.145 22.12L187.745 26.52L182.465 26.32H178.905L178.825 29.44H182.265L185.745 29.32L186.065 29.76L185.705 34.2L181.865 34.08L178.705 34.12L178.665 35.44L178.745 37.36H182.105L187.625 37.16ZM199.298 21.32C201.244 21.32 203.191 21.6667 205.138 22.36L204.258 27.56L203.378 27.76C202.524 27.1467 201.644 26.6667 200.738 26.32C199.858 25.9733 199.111 25.8 198.498 25.8C197.938 25.8 197.498 25.9333 197.178 26.2C196.884 26.44 196.738 26.7467 196.738 27.12C196.738 27.5733 196.964 27.9467 197.418 28.24C197.871 28.5333 198.644 28.9067 199.738 29.36C200.911 29.8133 201.884 30.2667 202.658 30.72C203.458 31.1467 204.138 31.76 204.698 32.56C205.284 33.36 205.578 34.36 205.578 35.56C205.578 36.76 205.271 37.88 204.658 38.92C204.071 39.96 203.124 40.8 201.818 41.44C200.538 42.08 198.938 42.4 197.018 42.4C194.698 42.4 192.431 42 190.218 41.2L191.058 35.8L191.658 35.36C192.591 36.1867 193.631 36.8533 194.778 37.36C195.924 37.84 196.924 38.08 197.778 38.08C198.338 38.08 198.791 37.9467 199.138 37.68C199.484 37.4133 199.658 37.08 199.658 36.68C199.658 36.2267 199.431 35.8533 198.978 35.56C198.524 35.2667 197.751 34.8933 196.658 34.44C195.458 33.96 194.458 33.4933 193.658 33.04C192.884 32.5867 192.204 31.96 191.618 31.16C191.058 30.36 190.778 29.3467 190.778 28.12C190.778 26.84 191.111 25.6933 191.778 24.68C192.471 23.64 193.458 22.8267 194.738 22.24C196.018 21.6267 197.538 21.32 199.298 21.32ZM217.501 21.32C219.447 21.32 221.394 21.6667 223.341 22.36L222.461 27.56L221.581 27.76C220.727 27.1467 219.847 26.6667 218.941 26.32C218.061 25.9733 217.314 25.8 216.701 25.8C216.141 25.8 215.701 25.9333 215.381 26.2C215.087 26.44 214.941 26.7467 214.941 27.12C214.941 27.5733 215.167 27.9467 215.621 28.24C216.074 28.5333 216.847 28.9067 217.941 29.36C219.114 29.8133 220.087 30.2667 220.861 30.72C221.661 31.1467 222.341 31.76 222.901 32.56C223.487 33.36 223.781 34.36 223.781 35.56C223.781 36.76 223.474 37.88 222.861 38.92C222.274 39.96 221.327 40.8 220.021 41.44C218.741 42.08 217.141 42.4 215.221 42.4C212.901 42.4 210.634 42 208.421 41.2L209.261 35.8L209.861 35.36C210.794 36.1867 211.834 36.8533 212.981 37.36C214.127 37.84 215.127 38.08 215.981 38.08C216.541 38.08 216.994 37.9467 217.341 37.68C217.687 37.4133 217.861 37.08 217.861 36.68C217.861 36.2267 217.634 35.8533 217.181 35.56C216.727 35.2667 215.954 34.8933 214.861 34.44C213.661 33.96 212.661 33.4933 211.861 33.04C211.087 32.5867 210.407 31.96 209.821 31.16C209.261 30.36 208.981 29.3467 208.981 28.12C208.981 26.84 209.314 25.6933 209.981 24.68C210.674 23.64 211.661 22.8267 212.941 22.24C214.221 21.6267 215.741 21.32 217.501 21.32ZM233.704 35.44L233.944 42H227.944L228.224 36.04L227.944 21.68H234.064L233.704 35.44ZM250.671 42H243.431L237.311 21.68H243.391L243.991 24.96L246.991 36.6H247.351L250.951 25.32L251.551 21.68H257.431L250.671 42ZM274.89 37.16L275.25 37.56L274.85 42H260.17L260.45 36.04L260.17 21.68H275.05L275.41 22.12L275.01 26.52L269.73 26.32H266.17L266.09 29.44H269.53L273.01 29.32L273.33 29.76L272.97 34.2L269.13 34.08L265.97 34.12L265.93 35.44L266.01 37.36H269.37L274.89 37.16ZM292.123 31.52C293.51 31.8933 294.523 32.4667 295.163 33.24C295.83 33.9867 296.163 34.96 296.163 36.16C296.163 38.24 295.283 39.7733 293.523 40.76C291.763 41.72 289.123 42.2 285.603 42.2C283.523 42.2 281.256 42.1333 278.803 42L279.083 36.04L278.803 21.68L287.843 21.64C290.216 21.64 292.07 22.0933 293.403 23C294.736 23.88 295.403 25.16 295.403 26.84C295.403 27.88 295.11 28.8133 294.523 29.64C293.963 30.44 293.163 31.0667 292.123 31.52ZM289.163 27.72C289.163 26.9733 288.896 26.4667 288.363 26.2C287.83 25.9333 286.816 25.8 285.323 25.8H284.723L284.603 29.92L287.203 30C287.896 29.8133 288.39 29.5467 288.683 29.2C289.003 28.8533 289.163 28.36 289.163 27.72ZM286.683 38.12C287.723 38.12 288.523 37.9333 289.083 37.56C289.67 37.1867 289.963 36.6267 289.963 35.88C289.963 35.4 289.79 35 289.443 34.68C289.096 34.36 288.55 34.0933 287.803 33.88L284.523 33.96L284.483 35.44L284.563 37.96C285.31 38.0667 286.016 38.12 286.683 38.12ZM318.21 42H312.13L311.57 38.76L311.49 38.44L307.77 38.36L304.57 38.44L303.97 42H298.09L304.85 21.68H312.05L318.21 42ZM310.33 33.96L308.53 27.08H308.17L305.97 33.96L308.13 34L310.33 33.96ZM340.495 35.4L340.735 42H334.175L327.255 30.72H326.935L326.895 34.72L327.095 42H321.655L321.935 36.04L321.655 21.68H328.175L335.095 32.92H335.495L335.295 21.88L340.815 21.56L340.495 35.4ZM357.471 31.28C359.551 34.24 362.017 37.3867 364.871 40.72L364.791 41.4C362.897 41.8533 360.897 42.1867 358.791 42.4L358.071 42.04C355.697 38.52 353.617 35.28 351.831 32.32L351.751 35.44L351.991 42H345.991L346.271 36.04L345.991 21.68H352.111L351.871 30.52L356.591 23.84L357.791 21.68L364.271 21.64L357.471 31.28Z" fill="black"/>
<defs>
<linearGradient id="paint0_linear_16_71" x1="3.41087" y1="8.45773" x2="134.868" y2="62.5765" gradientUnits="userSpaceOnUse">
<stop offset="0.466144" stop-color="#EA24CA" stop-opacity="0.57"/>
<stop offset="1" stop-color="#4915B9" stop-opacity="0.74"/>
</linearGradient>
<linearGradient id="paint1_linear_16_71" x1="37.2709" y1="65.4989" x2="64.6197" y2="4.531" gradientUnits="userSpaceOnUse">
<stop offset="0.022116" stop-color="#EA24CA"/>
<stop offset="0.54297" stop-color="#4915B9" stop-opacity="0.74"/>
</linearGradient>
<linearGradient id="paint2_linear_16_71" x1="60.0309" y1="71.8426" x2="87.3797" y2="10.8747" gradientUnits="userSpaceOnUse">
<stop offset="0.022116" stop-color="white"/>
<stop offset="1" stop-color="#4915B9" stop-opacity="0.48"/>
</linearGradient>
<linearGradient id="paint3_linear_16_71" x1="3.41087" y1="8.45773" x2="134.868" y2="62.5765" gradientUnits="userSpaceOnUse">
<stop stop-color="#EA24CA" stop-opacity="0.57"/>
<stop offset="0.330722" stop-color="white"/>
<stop offset="1" stop-color="#4915B9" stop-opacity="0.48"/>
</linearGradient>
<linearGradient id="paint4_linear_16_71" x1="37.2709" y1="65.4989" x2="64.6197" y2="4.531" gradientUnits="userSpaceOnUse">
<stop offset="0.022116" stop-color="white"/>
<stop offset="0.789074" stop-color="#EA24CA" stop-opacity="0.57"/>
</linearGradient>
</defs>
</svg>
