<svg width="438" height="82" viewBox="0 0 438 82" fill="none" xmlns="http://www.w3.org/2000/svg">
<path d="M0 16.7429L6.82174 0.172481L134 64.6851L127.178 81.2555L0 16.7429Z" fill="#D9D9D9"/>
<path d="M0 16.7429L6.82174 0.172481L134 64.6851L127.178 81.2555L0 16.7429Z" fill="url(#paint0_linear_16_72)"/>
<path d="M43.3799 68.2392L31.1619 62.7585L54.519 7.48121e-06L66.737 5.48073L43.3799 68.2392Z" fill="#D9D9D9"/>
<path d="M43.3799 68.2392L31.1619 62.7585L54.519 7.48121e-06L66.737 5.48073L43.3799 68.2392Z" fill="url(#paint1_linear_16_72)"/>
<path d="M119.92 26.44L128 40H120.24L118.96 37.2L115.52 31.52L111.56 37.52L110.36 40H103.72L111.72 27.4L103.64 14.2H111.44L112.72 17.04L116.04 22.44L119.56 16.76L120.72 14.2H127.52L119.92 26.44ZM140.748 19.64C143.094 19.64 144.908 20.2 146.188 21.32C147.468 22.44 148.108 24.0267 148.108 26.08C148.108 27.68 147.708 29.0933 146.908 30.32C146.134 31.52 145.041 32.4533 143.628 33.12C142.214 33.7867 140.574 34.12 138.708 34.12H136.908L137.108 40H131.108L131.388 34.04L131.108 19.68L140.748 19.64ZM139.628 29.88C140.374 29.5867 140.921 29.1867 141.268 28.68C141.614 28.1733 141.788 27.5067 141.788 26.68C141.788 25.7467 141.534 25.0667 141.028 24.64C140.548 24.1867 139.761 23.9333 138.668 23.88L137.108 24L136.948 29.76L139.628 29.88ZM164.781 32.04C166.035 33.9333 167.648 36.12 169.621 38.6L169.541 39.28C167.488 39.8933 165.541 40.2533 163.701 40.36L162.861 39.76C161.741 37.7067 160.715 35.72 159.781 33.8H157.141L157.381 40H151.381L151.661 34.04L151.381 19.68L161.021 19.64C163.395 19.64 165.221 20.1867 166.501 21.28C167.781 22.3467 168.421 23.88 168.421 25.88C168.421 27.1067 168.101 28.2533 167.461 29.32C166.821 30.3867 165.928 31.2933 164.781 32.04ZM162.061 26.48C162.061 25.6 161.808 24.96 161.301 24.56C160.821 24.16 160.035 23.9333 158.941 23.88L157.381 24L157.261 29.36L159.941 29.52C160.688 29.2533 161.221 28.88 161.541 28.4C161.888 27.8933 162.061 27.2533 162.061 26.48ZM187.625 35.16L187.985 35.56L187.585 40H172.905L173.185 34.04L172.905 19.68H187.785L188.145 20.12L187.745 24.52L182.465 24.32H178.905L178.825 27.44H182.265L185.745 27.32L186.065 27.76L185.705 32.2L181.865 32.08L178.705 32.12L178.665 33.44L178.745 35.36H182.105L187.625 35.16ZM199.298 19.32C201.244 19.32 203.191 19.6667 205.138 20.36L204.258 25.56L203.378 25.76C202.524 25.1467 201.644 24.6667 200.738 24.32C199.858 23.9733 199.111 23.8 198.498 23.8C197.938 23.8 197.498 23.9333 197.178 24.2C196.884 24.44 196.738 24.7467 196.738 25.12C196.738 25.5733 196.964 25.9467 197.418 26.24C197.871 26.5333 198.644 26.9067 199.738 27.36C200.911 27.8133 201.884 28.2667 202.658 28.72C203.458 29.1467 204.138 29.76 204.698 30.56C205.284 31.36 205.578 32.36 205.578 33.56C205.578 34.76 205.271 35.88 204.658 36.92C204.071 37.96 203.124 38.8 201.818 39.44C200.538 40.08 198.938 40.4 197.018 40.4C194.698 40.4 192.431 40 190.218 39.2L191.058 33.8L191.658 33.36C192.591 34.1867 193.631 34.8533 194.778 35.36C195.924 35.84 196.924 36.08 197.778 36.08C198.338 36.08 198.791 35.9467 199.138 35.68C199.484 35.4133 199.658 35.08 199.658 34.68C199.658 34.2267 199.431 33.8533 198.978 33.56C198.524 33.2667 197.751 32.8933 196.658 32.44C195.458 31.96 194.458 31.4933 193.658 31.04C192.884 30.5867 192.204 29.96 191.618 29.16C191.058 28.36 190.778 27.3467 190.778 26.12C190.778 24.84 191.111 23.6933 191.778 22.68C192.471 21.64 193.458 20.8267 194.738 20.24C196.018 19.6267 197.538 19.32 199.298 19.32ZM217.501 19.32C219.447 19.32 221.394 19.6667 223.341 20.36L222.461 25.56L221.581 25.76C220.727 25.1467 219.847 24.6667 218.941 24.32C218.061 23.9733 217.314 23.8 216.701 23.8C216.141 23.8 215.701 23.9333 215.381 24.2C215.087 24.44 214.941 24.7467 214.941 25.12C214.941 25.5733 215.167 25.9467 215.621 26.24C216.074 26.5333 216.847 26.9067 217.941 27.36C219.114 27.8133 220.087 28.2667 220.861 28.72C221.661 29.1467 222.341 29.76 222.901 30.56C223.487 31.36 223.781 32.36 223.781 33.56C223.781 34.76 223.474 35.88 222.861 36.92C222.274 37.96 221.327 38.8 220.021 39.44C218.741 40.08 217.141 40.4 215.221 40.4C212.901 40.4 210.634 40 208.421 39.2L209.261 33.8L209.861 33.36C210.794 34.1867 211.834 34.8533 212.981 35.36C214.127 35.84 215.127 36.08 215.981 36.08C216.541 36.08 216.994 35.9467 217.341 35.68C217.687 35.4133 217.861 35.08 217.861 34.68C217.861 34.2267 217.634 33.8533 217.181 33.56C216.727 33.2667 215.954 32.8933 214.861 32.44C213.661 31.96 212.661 31.4933 211.861 31.04C211.087 30.5867 210.407 29.96 209.821 29.16C209.261 28.36 208.981 27.3467 208.981 26.12C208.981 24.84 209.314 23.6933 209.981 22.68C210.674 21.64 211.661 20.8267 212.941 20.24C214.221 19.6267 215.741 19.32 217.501 19.32ZM233.704 33.44L233.944 40H227.944L228.224 34.04L227.944 19.68H234.064L233.704 33.44ZM250.671 40H243.431L237.311 19.68H243.391L243.991 22.96L246.991 34.6H247.351L250.951 23.32L251.551 19.68H257.431L250.671 40ZM274.89 35.16L275.25 35.56L274.85 40H260.17L260.45 34.04L260.17 19.68H275.05L275.41 20.12L275.01 24.52L269.73 24.32H266.17L266.09 27.44H269.53L273.01 27.32L273.33 27.76L272.97 32.2L269.13 32.08L265.97 32.12L265.93 33.44L266.01 35.36H269.37L274.89 35.16ZM292.123 29.52C293.51 29.8933 294.523 30.4667 295.163 31.24C295.83 31.9867 296.163 32.96 296.163 34.16C296.163 36.24 295.283 37.7733 293.523 38.76C291.763 39.72 289.123 40.2 285.603 40.2C283.523 40.2 281.256 40.1333 278.803 40L279.083 34.04L278.803 19.68L287.843 19.64C290.216 19.64 292.07 20.0933 293.403 21C294.736 21.88 295.403 23.16 295.403 24.84C295.403 25.88 295.11 26.8133 294.523 27.64C293.963 28.44 293.163 29.0667 292.123 29.52ZM289.163 25.72C289.163 24.9733 288.896 24.4667 288.363 24.2C287.83 23.9333 286.816 23.8 285.323 23.8H284.723L284.603 27.92L287.203 28C287.896 27.8133 288.39 27.5467 288.683 27.2C289.003 26.8533 289.163 26.36 289.163 25.72ZM286.683 36.12C287.723 36.12 288.523 35.9333 289.083 35.56C289.67 35.1867 289.963 34.6267 289.963 33.88C289.963 33.4 289.79 33 289.443 32.68C289.096 32.36 288.55 32.0933 287.803 31.88L284.523 31.96L284.483 33.44L284.563 35.96C285.31 36.0667 286.016 36.12 286.683 36.12ZM318.21 40H312.13L311.57 36.76L311.49 36.44L307.77 36.36L304.57 36.44L303.97 40H298.09L304.85 19.68H312.05L318.21 40ZM310.33 31.96L308.53 25.08H308.17L305.97 31.96L308.13 32L310.33 31.96ZM340.495 33.4L340.735 40H334.175L327.255 28.72H326.935L326.895 32.72L327.095 40H321.655L321.935 34.04L321.655 19.68H328.175L335.095 30.92H335.495L335.295 19.88L340.815 19.56L340.495 33.4ZM357.471 29.28C359.551 32.24 362.017 35.3867 364.871 38.72L364.791 39.4C362.897 39.8533 360.897 40.1867 358.791 40.4L358.071 40.04C355.697 36.52 353.617 33.28 351.831 30.32L351.751 33.44L351.991 40H345.991L346.271 34.04L345.991 19.68H352.111L351.871 28.52L356.591 21.84L357.791 19.68L364.271 19.64L357.471 29.28Z" fill="white"/>
<path d="M66.14 74.5829L53.9219 69.1022L77.2791 6.3437L89.4971 11.8244L66.14 74.5829Z" fill="#D9D9D9"/>
<path d="M66.14 74.5829L53.9219 69.1022L77.2791 6.3437L89.4971 11.8244L66.14 74.5829Z" fill="url(#paint2_linear_16_72)"/>
<g opacity="0.2">
<path d="M7.99057 20.7962C3.5775 18.5576 1.5271 13.0335 3.41087 8.45767V8.45767C5.29465 3.88189 10.3992 1.98721 14.8123 4.22579L126.009 60.6318C130.422 62.8704 132.473 68.3945 130.589 72.9703V72.9703C128.705 77.5461 123.601 79.4407 119.188 77.2022L7.99057 20.7962Z" fill="#D9D9D9"/>
<path d="M7.99057 20.7962C3.5775 18.5576 1.5271 13.0335 3.41087 8.45767V8.45767C5.29465 3.88189 10.3992 1.98721 14.8123 4.22579L126.009 60.6318C130.422 62.8704 132.473 68.3945 130.589 72.9703V72.9703C128.705 77.5461 123.601 79.4407 119.188 77.2022L7.99057 20.7962Z" fill="url(#paint3_linear_16_72)"/>
</g>
<path d="M43.3799 68.2392L31.1619 62.7585L54.519 7.48121e-06L66.737 5.48073L43.3799 68.2392Z" fill="#D9D9D9"/>
<path d="M43.3799 68.2392L31.1619 62.7585L54.519 7.48121e-06L66.737 5.48073L43.3799 68.2392Z" fill="url(#paint4_linear_16_72)"/>
<defs>
<linearGradient id="paint0_linear_16_72" x1="3.41087" y1="8.45767" x2="134.868" y2="62.5764" gradientUnits="userSpaceOnUse">
<stop offset="0.466144" stop-color="#EA24CA" stop-opacity="0.57"/>
<stop offset="1" stop-color="#4915B9" stop-opacity="0.74"/>
</linearGradient>
<linearGradient id="paint1_linear_16_72" x1="37.2709" y1="65.4988" x2="64.6197" y2="4.53094" gradientUnits="userSpaceOnUse">
<stop offset="0.022116" stop-color="#EA24CA"/>
<stop offset="0.54297" stop-color="#4915B9" stop-opacity="0.74"/>
</linearGradient>
<linearGradient id="paint2_linear_16_72" x1="60.0309" y1="71.8425" x2="87.3797" y2="10.8746" gradientUnits="userSpaceOnUse">
<stop offset="0.022116" stop-color="white"/>
<stop offset="1" stop-color="#4915B9" stop-opacity="0.48"/>
</linearGradient>
<linearGradient id="paint3_linear_16_72" x1="3.41087" y1="8.45767" x2="134.868" y2="62.5764" gradientUnits="userSpaceOnUse">
<stop stop-color="#EA24CA" stop-opacity="0.57"/>
<stop offset="0.330722" stop-color="white"/>
<stop offset="1" stop-color="#4915B9" stop-opacity="0.48"/>
</linearGradient>
<linearGradient id="paint4_linear_16_72" x1="37.2709" y1="65.4988" x2="64.6197" y2="4.53094" gradientUnits="userSpaceOnUse">
<stop offset="0.022116" stop-color="white"/>
<stop offset="0.789074" stop-color="#EA24CA" stop-opacity="0.57"/>
</linearGradient>
</defs>
</svg>
